<svg xmlns="http://www.w3.org/2000/svg" height="20px" viewBox="0 -960 960 960" width="20px">
    <path d="m764,-120 162,-160 -58,-56 -64,64 v-167 h-80 v167 l-64,-64 -56,56z M604,0 V-80 H926 V0 Z"/>
    <path d="m 392,-175 q -50,0 -85,-35 -35,-35 -35,-85 0,-11 2,-23 2,-11 6,-21 l -61,-49 q -14,10 -31,16 -17,5 -36,5 -49,0 -84.2,-35 -35.1,-35 -35.1,-85 0,-50 35.1,-85 35.2,-35 84.2,-35 31,0 57,14 25,14 42,37 l 93,-28 q 0,-20 7,-39 7,-19 18,-34 l -37,-52 q -9,3 -18,4 -9,1 -19,1 -50,0 -85,-35 -35,-35 -35,-85 0,-50 35,-85 35,-35 85,-35 50,0 85,35 35,35 35,85 0,20 -6,39 -7,19 -19,34 l 38,53 q 8,-3 17,-4 9,-1 19,-1 17,0 33,4 15,5 29,13 l 45,-40 q -5,-11 -8,-23 -3,-13 -3,-26 0,-50 35,-85 35,-35 85,-35 50,0 85,35 35,35 35,85 0,50 -35,85 -35,35 -85,35 -17,0 -32,-5 -16,-4 -30,-12 l -44,39 q 5,11 8,23 2,13 2,27 0,50 -35,85 -35,35 -85,35 -31,0 -56,-15 -26,-14 -43,-37 l -93,28 q 0,11 -2,22 -2,11 -6,21 l 61,49 q 14,-10 31,-15 17,-5 36,-5 50,0 85,35 35,35 35,85 0,50 -35,85 -35,35 -85,35 z M 152,-439 q 20,0 34,-14 14,-14 14,-34 0,-20 -14,-34 -14,-14 -34,-14 -20,0 -34,14 -13,14 -13,34 0,20 13,34 14,14 34,14 z m 144,-336 q 20,0 34,-14 14,-14 14,-34 0,-20 -14,-34 -14,-14 -34,-14 -20,0 -34,14 -14,14 -14,34 0,20 14,34 14,14 34,14 z m 96,528 q 20,0 34,-14 14,-14 14,-34 0,-20 -14,-34 -14,-14 -34,-14 -20,0 -34,14 -14,14 -14,34 0,20 14,34 14,14 34,14 z m 72,-288 q 20,0 34,-14 14,-14 14,-34 0,-20 -14,-34 -14,-14 -34,-14 -20,0 -34,14 -14,14 -14,34 0,20 14,34 14,14 34,14 z m 216,-192 q 20,0 34,-14 14,-14 14,-34 0,-20 -14,-34 -14,-14 -34,-14 -20,0 -34,14 -14,14 -14,34 0,20 14,34 14,14 34,14 z"/>
</svg>